<?xml version="1.0" standalone="no"?>
<!DOCTYPE svg PUBLIC "-//W3C//DTD SVG 20010904//EN"
 "http://www.w3.org/TR/2001/REC-SVG-20010904/DTD/svg10.dtd">
<svg version="1.0" xmlns="http://www.w3.org/2000/svg"
 width="300.000000pt" height="200.000000pt" viewBox="0 0 300.000000 200.000000"
 preserveAspectRatio="xMidYMid meet">
<metadata>
Created by potrace 1.10, written by Peter Selinger 2001-2011
</metadata>
<g transform="translate(0.000000,200.000000) scale(0.100000,-0.100000)"
fill="#000000" stroke="none">
<path d="M1558 1772 c-37 -24 -65 -62 -93 -126 -14 -31 -42 -82 -64 -113 -21
-32 -53 -87 -71 -122 -31 -63 -31 -64 -15 -100 14 -31 333 -371 348 -371 22 0
-20 53 -149 187 -82 86 -156 167 -164 182 -8 14 -18 28 -23 29 -8 4 72 161
102 200 17 23 19 23 82 12 70 -13 169 -6 230 15 l38 14 47 -71 c26 -39 65
-112 87 -162 21 -50 43 -96 49 -103 19 -24 16 -64 -6 -79 -48 -30 -82 -133
-58 -171 4 -6 7 13 7 42 0 39 6 61 21 82 24 33 85 76 93 67 3 -4 -1 -9 -9 -12
-8 -3 -32 -22 -52 -42 -35 -34 -38 -42 -38 -92 0 -76 34 -105 98 -84 16 5 22
3 22 -7 0 -7 22 -54 50 -103 52 -93 60 -121 35 -130 -18 -7 -20 -34 -2 -34 22
0 37 22 37 55 0 16 -23 73 -50 125 -27 52 -46 97 -42 100 88 61 114 129 77
200 -18 36 -69 64 -99 56 -27 -7 -76 41 -96 94 -28 73 -90 187 -133 246 -25
34 -53 77 -63 95 -40 80 -105 139 -151 139 -10 0 -30 -8 -45 -18z m102 -39
c36 -30 76 -89 86 -127 5 -22 2 -26 -38 -36 -46 -13 -231 -10 -245 3 -4 5 -1
12 7 17 8 6 12 10 7 10 -14 0 52 118 79 139 36 28 66 26 104 -6z m340 -533 c0
-5 -2 -10 -4 -10 -3 0 -8 5 -11 10 -3 6 -1 10 4 10 6 0 11 -4 11 -10z m98 -52
c7 -7 12 -30 12 -52 0 -33 -6 -45 -39 -77 -74 -70 -131 -60 -131 22 0 47 31
85 85 104 50 18 58 18 73 3z"/>
<path d="M2075 1110 c3 -5 8 -10 11 -10 2 0 4 5 4 10 0 6 -5 10 -11 10 -5 0
-7 -4 -4 -10z"/>
<path d="M1990 1091 c-7 -15 -6 -23 6 -35 19 -20 29 -20 48 0 19 19 20 26 4
42 -18 18 -46 14 -58 -7z"/>
<path d="M1620 1106 c0 -2 8 -10 18 -17 15 -13 16 -12 3 4 -13 16 -21 21 -21
13z"/>
<path d="M1206 1081 c-12 -19 -65 -252 -77 -341 -7 -52 -13 -96 -14 -98 -1 -1
-16 5 -33 14 -73 36 -143 -24 -186 -158 -4 -14 -12 -16 -35 -12 -34 7 -91 -29
-91 -58 0 -20 18 -25 109 -31 53 -3 67 -8 79 -25 18 -27 96 -32 106 -7 5 13
77 15 571 15 l565 0 0 33 c0 23 -8 41 -25 57 l-25 23 0 -26 c0 -15 -4 -27 -10
-27 -23 0 -42 67 -51 183 -11 147 -26 254 -39 276 -8 14 -9 13 -10 -4 0 -11 7
-72 14 -135 21 -167 23 -262 5 -269 -8 -3 -26 -14 -42 -25 -21 -14 -30 -16
-41 -6 -11 8 -20 8 -35 1 -27 -15 -29 -15 -46 19 -20 38 -31 38 -72 -2 -27
-26 -36 -30 -55 -22 -13 6 -32 8 -43 6 -14 -4 -7 -8 25 -16 35 -9 47 -9 53 1
4 7 21 20 36 28 26 13 30 13 50 -11 17 -20 28 -24 49 -19 22 4 33 0 52 -21
l25 -27 -30 8 c-36 10 -52 9 -84 -1 -19 -5 -22 -4 -16 6 6 10 4 11 -11 5 -10
-4 -37 -6 -59 -5 -57 4 -78 4 -95 -1 -10 -3 -16 4 -18 22 -2 17 -13 31 -30 40
-15 7 -30 15 -33 17 -4 1 -9 -4 -13 -13 -3 -10 -2 -14 5 -10 14 9 59 -22 59
-41 0 -12 -16 -15 -87 -14 -49 0 -95 0 -103 -1 -8 0 -30 2 -47 5 -18 3 -33 2
-33 -3 0 -4 -26 -4 -57 -1 -32 4 -77 5 -100 2 -37 -4 -47 0 -78 27 -20 17 -40
31 -45 31 -5 0 -18 -14 -30 -30 -23 -33 -75 -64 -90 -55 -5 3 -11 1 -15 -4 -3
-6 -13 -7 -21 -4 -13 5 -15 15 -10 46 10 61 34 104 69 122 82 43 101 55 92 55
-5 0 -36 -12 -68 -27 -50 -24 -61 -35 -82 -80 -14 -28 -25 -59 -25 -68 0 -13
-7 -15 -37 -9 -50 9 -57 23 -27 51 13 12 24 27 24 33 0 25 51 108 76 125 26
17 74 17 115 0 21 -8 28 9 45 110 8 44 16 93 19 109 2 15 8 38 12 50 7 22 9
29 12 61 2 20 2 20 11 0 6 -14 9 -4 9 37 1 31 6 60 11 63 6 4 32 -7 59 -24 67
-40 310 -158 341 -164 14 -3 40 -10 58 -15 41 -13 33 3 -11 22 l-32 14 27 1
c14 1 28 -4 30 -11 5 -13 88 -40 88 -28 0 4 -24 17 -52 30 -45 19 -50 23 -33
30 11 5 14 9 7 9 -7 1 -32 -8 -54 -19 -23 -11 -46 -20 -51 -20 -15 0 -3 35 13
36 8 1 21 2 28 3 7 0 10 6 7 11 -10 16 -53 11 -63 -7 -9 -15 -24 -10 -134 45
-69 33 -148 75 -177 91 -55 33 -67 36 -75 22z m900 -636 c20 -18 31 -22 44
-15 9 5 20 6 24 3 12 -12 6 -21 -16 -22 -13 0 -49 -2 -81 -3 -44 -2 -62 1 -73
14 -14 15 -13 18 13 31 41 22 59 20 89 -8z m-1242 -1 c8 -22 7 -23 -32 -17
-26 4 -30 8 -21 19 16 19 45 18 53 -2z m321 -22 c3 -9 -6 -12 -35 -10 -45 2
-44 2 -29 27 10 15 16 16 35 7 13 -6 26 -17 29 -24z"/>
<path d="M2045 440 c-3 -5 -2 -10 4 -10 5 0 18 -3 28 -7 17 -6 17 -6 1 10 -19
20 -24 21 -33 7z"/>
<path d="M1910 965 c0 -4 10 -16 22 -26 23 -20 64 -25 88 -9 10 6 3 8 -23 3
-31 -5 -42 -2 -62 17 -14 13 -25 20 -25 15z"/>
<path d="M1700 950 c-23 -7 -23 -8 -3 -9 12 -1 25 4 28 9 3 6 5 10 3 9 -2 -1
-14 -5 -28 -9z"/>
<path d="M1754 913 c29 -29 67 -44 45 -17 -6 7 -16 11 -21 8 -5 -3 -8 2 -6 11
2 12 -5 19 -21 21 l-24 4 27 -27z"/>
<path d="M1220 914 c0 -10 5 -26 10 -34 8 -11 9 -7 4 15 -8 37 -14 45 -14 19z"/>
<path d="M1250 827 c0 -15 29 -63 47 -78 17 -13 17 -13 2 6 -9 11 -24 34 -32
50 -9 17 -16 26 -17 22z"/>
<path d="M1366 673 c55 -51 124 -102 124 -90 0 2 -17 16 -37 29 -21 14 -63 47
-93 73 -52 45 -52 44 6 -12z"/>
<path d="M1516 565 c10 -8 23 -15 28 -15 6 0 1 7 -10 15 -10 8 -23 15 -28 15
-6 0 -1 -7 10 -15z"/>
<path d="M1581 536 c2 -2 15 -9 29 -15 24 -11 24 -11 6 3 -16 13 -49 24 -35
12z"/>
<path d="M1670 500 c8 -5 22 -9 30 -9 10 0 8 3 -5 9 -27 12 -43 12 -25 0z"/>
<path d="M1064 468 l-29 -33 33 29 c17 17 32 31 32 33 0 8 -8 1 -36 -29z"/>
<path d="M1131 496 c2 -2 15 -9 29 -15 24 -11 24 -11 6 3 -16 13 -49 24 -35
12z"/>
<path d="M1520 490 c0 -5 -3 -17 -6 -27 -5 -17 -5 -17 6 0 8 12 18 16 32 11
12 -4 18 -2 14 4 -8 13 -46 23 -46 12z"/>
<path d="M1264 464 c-5 -18 -10 -22 -17 -15 -13 13 -27 14 -27 2 0 -5 9 -11
21 -14 15 -4 23 0 26 14 4 15 8 17 19 8 12 -10 13 -9 8 5 -5 13 -1 15 25 10
20 -4 31 -3 31 5 0 6 -17 11 -40 11 -34 0 -40 -3 -46 -26z"/>
<path d="M1377 473 c-4 -3 -7 -12 -7 -20 0 -11 4 -11 20 -1 11 7 20 16 20 20
0 10 -24 10 -33 1z"/>
<path d="M1436 464 c-4 -10 -2 -13 6 -8 6 4 17 -1 25 -11 7 -11 13 -15 13 -9
-1 11 -25 44 -33 44 -2 0 -8 -7 -11 -16z"/>
<path d="M1768 473 c7 -3 16 -2 19 1 4 3 -2 6 -13 5 -11 0 -14 -3 -6 -6z"/>
<path d="M1578 448 c6 -6 18 -8 28 -6 14 3 12 5 -9 10 -19 3 -25 2 -19 -4z"/>
<path d="M1835 431 c-3 -5 -1 -12 5 -16 5 -3 10 1 10 9 0 18 -6 21 -15 7z"/>
<path d="M1025 419 c-4 -6 -5 -12 -2 -15 2 -3 7 2 10 11 7 17 1 20 -8 4z"/>
</g>
</svg>
