 <svg  version="1.0" xmlns="http://www.w3.org/2000/svg"  width="300.000000pt" height="200.000000pt" viewBox="0 0 300.000000 200.000000"  preserveAspectRatio="xMidYMid meet">  <g transform="translate(0.000000,200.000000) scale(0.100000,-0.100000)" fill="#ffffff" stroke="none"> <path d="M1558 1772 c-37 -24 -65 -62 -94 -128 -13 -31 -42 -81 -63 -113 -21 -31 -53 -85 -71 -120 -31 -63 -31 -64 -15 -100 23 -51 343 -377 356 -364 13 13 -45 83 -205 248 -64 66 -119 130 -122 142 -5 16 9 49 45 113 28 49 51 95 51 101 0 7 11 9 29 6 99 -20 138 -19 276 8 28 5 32 1 71 -62 23 -38 69 -124 103 -193 l60 -125 -23 -20 c-68 -57 -86 -145 -38 -191 15 -15 18 -22 7 -15 -11 8 -7 1 9 -14 25 -22 36 -26 66 -21 l36 6 12 -138 c7 -75 12 -157 12 -182 0 -25 4 -60 9 -78 9 -30 7 -33 -19 -47 -39 -20 -50 -38 -15 -25 29 11 59 0 69 -25 6 -18 2 -19 -24 -5 -16 9 -18 8 -13 -6 10 -27 -58 -7 -84 25 -21 25 -22 26 -40 7 -10 -10 -12 -16 -6 -12 14 8 53 -10 53 -23 0 -9 -102 -7 -117 2 -5 3 -44 2 -87 -2 -74 -7 -78 -6 -86 14 -7 19 -50 55 -65 55 -17 0 0 -19 25 -30 20 -8 30 -19 28 -29 -2 -9 -7 -15 -11 -13 -4 1 -21 2 -38 2 -24 0 -30 4 -25 15 3 9 0 15 -9 15 -8 0 -14 -6 -12 -13 1 -8 -11 -12 -35 -13 -21 0 -40 -3 -43 -6 -11 -10 -45 4 -38 16 5 7 2 7 -8 -1 -9 -7 -58 -12 -137 -12 -115 0 -126 2 -160 25 l-37 25 -25 -30 c-14 -17 -32 -31 -41 -31 -8 0 -20 -5 -27 -12 -9 -9 -12 -9 -12 2 0 9 -4 8 -14 -5 -12 -16 -16 -17 -30 -6 -9 7 -16 19 -16 25 0 7 -14 10 -39 8 -49 -5 -57 9 -28 45 13 15 34 49 46 75 34 71 63 90 127 84 65 -7 69 -2 89 122 8 48 22 112 31 142 9 30 18 73 21 95 2 22 6 45 8 52 3 8 54 -13 147 -60 155 -78 192 -94 253 -109 42 -10 155 -19 155 -13 0 2 -21 13 -46 25 -50 22 -89 26 -99 10 -9 -15 -35 -12 -35 4 0 8 10 16 22 18 12 2 23 9 26 16 6 19 -46 15 -57 -5 -8 -16 -22 -11 -136 45 -70 35 -149 77 -176 93 -28 16 -56 29 -63 29 -14 0 -70 -224 -88 -360 -6 -47 -12 -86 -13 -88 -1 -1 -16 5 -33 14 -65 32 -125 -8 -167 -112 -23 -55 -26 -59 -54 -56 -36 4 -91 -33 -91 -60 0 -20 18 -25 109 -31 53 -3 67 -8 79 -25 18 -27 88 -31 106 -7 10 14 80 16 574 15 l562 0 0 33 c0 23 -8 41 -25 57 l-25 23 0 -26 c0 -36 -16 -34 -36 5 -11 21 -20 76 -26 156 -5 68 -15 157 -22 198 -7 41 -11 74 -9 74 7 0 83 -147 83 -163 0 -10 -7 -20 -15 -23 -18 -7 -20 -34 -2 -34 22 0 37 22 37 55 0 16 -23 73 -50 125 -27 52 -46 97 -42 100 88 61 114 129 77 200 -18 36 -69 64 -99 56 -27 -7 -76 41 -96 94 -28 73 -90 187 -136 252 -27 37 -66 95 -86 128 -38 60 -86 100 -123 100 -11 0 -32 -8 -47 -18z m106 -62 c51 -47 86 -114 68 -132 -14 -14 -187 -24 -227 -14 -21 5 -25 11 -20 29 21 74 85 157 121 157 8 0 34 -18 58 -40z m434 -562 c15 -15 16 -72 1 -99 -15 -29 -88 -79 -115 -79 -28 0 -44 27 -44 74 0 44 32 82 85 101 50 18 58 18 73 3z m-393 -269 c12 -19 -2 -21 -32 -5 l-28 15 27 1 c15 0 30 -5 33 -11z"/> <path d="M1997 1103 c-13 -12 -7 -51 8 -57 34 -13 66 24 44 50 -12 15 -41 19 -52 7z"/> <path d="M1830 485 l-23 -24 31 11 c28 11 34 10 59 -12 19 -17 23 -18 12 -5 -9 11 -19 28 -22 38 -9 24 -29 21 -57 -8z"/> <path d="M1276 481 c-3 -5 1 -15 10 -22 12 -10 15 -10 12 1 -2 7 8 17 22 21 24 7 23 7 -7 8 -17 1 -34 -3 -37 -8z"/> </g> </svg> 